<svg width="213" height="213" viewBox="0 0 213 213" fill="none" xmlns="http://www.w3.org/2000/svg">
<g clip-path="url(#clip0_201_6)">
<path d="M106.334 207.253C162.07 207.253 207.253 162.07 207.253 106.334C207.253 50.5973 162.07 5.41412 106.334 5.41412C50.5974 5.41412 5.41418 50.5973 5.41418 106.334C5.41418 162.07 50.5974 207.253 106.334 207.253Z" stroke="white" stroke-width="10.8283"/>
<path d="M143.974 80.3135C142.573 76.0245 140.725 72.1814 138.432 68.7842C136.182 65.3445 133.485 62.4144 130.343 59.9939C127.243 57.5734 123.718 55.7262 119.769 54.4522C115.82 53.1783 111.488 52.5413 106.774 52.5413C99.0458 52.5413 92.0178 54.5371 85.6905 58.5289C79.3632 62.5206 74.331 68.402 70.5941 76.1732C66.8572 83.9443 64.9887 93.4777 64.9887 104.773C64.9887 116.069 66.8784 125.603 70.6578 133.374C74.4372 141.145 79.5543 147.026 86.009 151.018C92.4637 155.01 99.7252 157.006 107.794 157.006C115.267 157.006 121.85 155.413 127.54 152.228C133.273 149.001 137.732 144.457 140.916 138.597C144.144 132.694 145.758 125.751 145.758 117.768L150.599 118.787H111.361V104.773H161.045V118.787C161.045 129.531 158.752 138.873 154.166 146.814C149.622 154.755 143.337 160.912 135.311 165.286C127.328 169.618 118.155 171.784 107.794 171.784C96.2431 171.784 86.0939 169.066 77.3461 163.63C68.6407 158.195 61.8463 150.466 56.9628 140.444C52.1217 130.422 49.7012 118.532 49.7012 104.773C49.7012 94.4544 51.0813 85.1758 53.8416 76.9375C56.6443 68.6568 60.5936 61.6076 65.6894 55.7899C70.7852 49.9721 76.8153 45.5133 83.7795 42.4133C90.7438 39.3134 98.4088 37.7634 106.774 37.7634C113.654 37.7634 120.066 38.8038 126.011 40.8846C131.999 42.9229 137.328 45.8318 141.999 49.6112C146.713 53.3481 150.641 57.8282 153.783 63.0514C156.926 68.2322 159.092 73.9862 160.281 80.3135H143.974Z" fill="white"/>
<path d="M143.974 80.3135L141.032 81.2746L141.729 83.4081H143.974V80.3135ZM138.432 68.7842L135.843 70.4786L135.855 70.4972L135.867 70.5156L138.432 68.7842ZM130.343 59.9939L128.438 62.433L128.446 62.4393L128.454 62.4455L130.343 59.9939ZM119.769 54.4522L120.719 51.5071L120.719 51.5071L119.769 54.4522ZM70.5941 76.1732L73.383 77.5143L73.383 77.5143L70.5941 76.1732ZM70.6578 133.374L67.8749 134.727L67.8749 134.727L70.6578 133.374ZM86.009 151.018L84.3813 153.65L86.009 151.018ZM127.54 152.228L129.051 154.929L129.058 154.925L127.54 152.228ZM140.916 138.597L138.201 137.112L138.197 137.119L140.916 138.597ZM145.758 117.768L146.395 114.74L142.663 113.954V117.768H145.758ZM150.599 118.787V121.882L151.236 115.759L150.599 118.787ZM111.361 118.787H108.266V121.882H111.361V118.787ZM111.361 104.773V101.679H108.266V104.773H111.361ZM161.045 104.773H164.14V101.679H161.045V104.773ZM154.166 146.814L151.486 145.266L151.48 145.277L154.166 146.814ZM135.311 165.286L136.787 168.006L136.792 168.004L135.311 165.286ZM77.3461 163.63L75.7071 166.255L75.7128 166.259L77.3461 163.63ZM56.9628 140.444L54.1762 141.79L54.1809 141.8L56.9628 140.444ZM53.8416 76.9375L50.9103 75.9454L50.9073 75.9544L53.8416 76.9375ZM65.6894 55.7899L68.0172 57.8289L68.0172 57.8289L65.6894 55.7899ZM83.7795 42.4133L82.5211 39.5862L83.7795 42.4133ZM126.011 40.8846L124.989 43.8054L125.001 43.8098L125.014 43.8141L126.011 40.8846ZM141.999 49.6112L140.053 52.0169L140.065 52.0266L140.077 52.0361L141.999 49.6112ZM153.783 63.0514L151.132 64.6467L151.138 64.6563L153.783 63.0514ZM160.281 80.3135V83.4081H164.011L163.322 79.742L160.281 80.3135ZM146.916 79.3524C145.434 74.8177 143.466 70.7107 140.997 67.0529L135.867 70.5156C137.984 73.6521 139.711 77.2314 141.032 81.2746L146.916 79.3524ZM141.022 67.0898C138.588 63.3709 135.658 60.1818 132.231 57.5423L128.454 62.4455C131.312 64.647 133.775 67.3181 135.843 70.4786L141.022 67.0898ZM132.247 57.5548C128.846 54.8989 124.994 52.8862 120.719 51.5071L118.819 57.3973C122.442 58.5661 125.64 60.2479 128.438 62.433L132.247 57.5548ZM120.719 51.5071C116.424 50.1217 111.767 49.4467 106.774 49.4467V55.6359C111.209 55.6359 115.215 56.2348 118.819 57.3973L120.719 51.5071ZM106.774 49.4467C98.4817 49.4467 90.8779 51.5974 84.0393 55.9116L87.3416 61.1461C93.1577 57.4769 99.6098 55.6359 106.774 55.6359V49.4467ZM84.0393 55.9116C77.1491 60.2585 71.7548 66.6188 67.8052 74.8321L73.383 77.5143C76.9073 70.1853 81.5772 64.7827 87.3416 61.1461L84.0393 55.9116ZM67.8052 74.8321C63.8148 83.1304 61.8941 93.1515 61.8941 104.773H68.0833C68.0833 93.804 69.8996 84.7582 73.383 77.5143L67.8052 74.8321ZM61.8941 104.773C61.8941 116.4 63.8374 126.425 67.8749 134.727L73.4407 132.02C69.9194 124.78 68.0833 115.739 68.0833 104.773H61.8941ZM67.8749 134.727C71.8741 142.95 77.3618 149.309 84.3813 153.65L87.6366 148.386C81.7467 144.744 77.0003 139.339 73.4407 132.02L67.8749 134.727ZM84.3813 153.65C91.3563 157.963 99.1881 160.1 107.794 160.1V153.911C100.262 153.911 93.5711 152.056 87.6366 148.386L84.3813 153.65ZM107.794 160.1C115.718 160.1 122.835 158.408 129.051 154.929L126.029 149.528C120.864 152.419 114.817 153.911 107.794 153.911V160.1ZM129.058 154.925C135.305 151.408 140.177 146.439 143.635 140.075L138.197 137.119C135.286 142.476 131.24 146.594 126.022 149.532L129.058 154.925ZM143.632 140.082C147.151 133.646 148.852 126.173 148.852 117.768H142.663C142.663 125.329 141.137 131.743 138.201 137.112L143.632 140.082ZM145.12 120.796L149.961 121.815L151.236 115.759L146.395 114.74L145.12 120.796ZM150.599 115.692H111.361V121.882H150.599V115.692ZM114.455 118.787V104.773H108.266V118.787H114.455ZM111.361 107.868H161.045V101.679H111.361V107.868ZM157.95 104.773V118.787H164.14V104.773H157.95ZM157.95 118.787C157.95 129.081 155.757 137.871 151.486 145.266L156.845 148.362C161.747 139.875 164.14 129.98 164.14 118.787H157.95ZM151.48 145.277C147.22 152.721 141.352 158.47 133.83 162.569L136.792 168.004C145.322 163.355 152.023 156.789 156.852 148.351L151.48 145.277ZM133.835 162.566C126.365 166.619 117.713 168.689 107.794 168.689V174.878C118.597 174.878 128.29 172.616 136.787 168.006L133.835 162.566ZM107.794 168.689C96.7482 168.689 87.179 166.097 78.9793 161.002L75.7128 166.259C85.0088 172.035 95.738 174.878 107.794 174.878V168.689ZM78.985 161.005C70.8145 155.904 64.3966 148.635 59.7447 139.089L54.1809 141.8C59.296 152.297 66.4669 160.486 75.7071 166.255L78.985 161.005ZM59.7493 139.098C55.1532 129.583 52.7958 118.174 52.7958 104.773H46.6066C46.6066 118.891 49.0903 131.261 54.1763 141.79L59.7493 139.098ZM52.7958 104.773C52.7958 94.7276 54.1396 85.7889 56.7758 77.9207L50.9073 75.9544C48.0231 84.5626 46.6066 94.1812 46.6066 104.773H52.7958ZM56.7728 77.9296C59.4621 69.9841 63.2221 63.3033 68.0172 57.8289L63.3615 53.7509C57.965 59.9119 53.8265 67.3295 50.9103 75.9454L56.7728 77.9296ZM68.0172 57.8289C72.8223 52.3431 78.4891 48.1555 85.038 45.2405L82.5211 39.5862C75.1414 42.8711 68.7481 47.6012 63.3615 53.7509L68.0172 57.8289ZM85.038 45.2405C91.569 42.3334 98.7998 40.858 106.774 40.858V34.6688C98.0178 34.6688 89.9187 36.2934 82.5211 39.5862L85.038 45.2405ZM106.774 40.858C113.338 40.858 119.401 41.8498 124.989 43.8054L127.033 37.9637C120.731 35.7578 113.97 34.6688 106.774 34.6688V40.858ZM125.014 43.8141C130.675 45.7413 135.679 48.4785 140.053 52.0169L143.946 47.2054C138.977 43.1851 133.322 40.1045 127.008 37.9551L125.014 43.8141ZM140.077 52.0361C144.496 55.5394 148.178 59.7372 151.132 64.6467L156.435 61.4561C153.104 55.9192 148.93 51.1569 143.922 47.1862L140.077 52.0361ZM151.138 64.6563C154.075 69.4997 156.115 74.9001 157.239 80.885L163.322 79.742C162.069 73.0723 159.776 66.9646 156.429 61.4465L151.138 64.6563ZM160.281 77.2189H143.974V83.4081H160.281V77.2189Z" fill="white"/>
</g>
<defs>
<clipPath id="clip0_201_6">
<rect width="212.667" height="212.667" fill="white"/>
</clipPath>
</defs>
</svg>
